HIERARCHY
ROOT root
{
	OFFSET	0	13.1	24.9
	CHANNELS 6  Xposition Yposition Zposition Xrotation Yrotation Zrotation
	JOINT spine_1
	{
		OFFSET	0	9.99999	0
		CHANNELS 3  Xrotation Yrotation Zrotation
		JOINT spine_2
		{
			OFFSET	0	112	-10
			CHANNELS 3  Xrotation Yrotation Zrotation
			JOINT spine_3
			{
				OFFSET	0	206.5	19.3
				CHANNELS 3  Xrotation Yrotation Zrotation
				JOINT spine_4
				{
					OFFSET	0	110.4	14.6
					CHANNELS 3  Xrotation Yrotation Zrotation
					JOINT neck_1
					{
						OFFSET	0	71.8	-50.3
						CHANNELS 3  Xrotation Yrotation Zrotation
						JOINT neck_2
						{
							OFFSET	0	86.2	-25.8
							CHANNELS 3  Xrotation Yrotation Zrotation
							JOINT head_ee
							{
								OFFSET	0	179.8	-8.7
								CHANNELS 3  Xrotation Yrotation Zrotation
								End Site
								{
									OFFSET	1	0	0
								}
							}
						}
					}
					JOINT left_clavicle
					{
						OFFSET	-43.2	22.4	-70.8
						CHANNELS 3  Xrotation Yrotation Zrotation
						JOINT left_shoulder
						{
							OFFSET	-93.9	-5.79999	48.7
							CHANNELS 3  Xrotation Yrotation Zrotation
							JOINT left_elbow
							{
								OFFSET	-291.4	-30.8	15.2
								CHANNELS 3  Xrotation Yrotation Zrotation
								JOINT left_lowarm_twist
								{
									OFFSET	-110.7	-3.89999	13.6
									CHANNELS 3  Xrotation Yrotation Zrotation
									JOINT left_hand
									{
										OFFSET	-110.7	-3.89999	13.6
										CHANNELS 3  Xrotation Yrotation Zrotation
										JOINT left_ee
										{
											OFFSET	-80.8	-5.10001	12.1
											CHANNELS 3  Xrotation Yrotation Zrotation
											End Site
											{
												OFFSET	1	0	0
											}
										}
									}
								}
							}
						}
					}
					JOINT right_clavicle
					{
						OFFSET	43.2	22.4	-70.8
						CHANNELS 3  Xrotation Yrotation Zrotation
						JOINT right_shoulder
						{
							OFFSET	93.9	-5.79999	48.7
							CHANNELS 3  Xrotation Yrotation Zrotation
							JOINT right_elbow
							{
								OFFSET	291.4	-30.8	15.2
								CHANNELS 3  Xrotation Yrotation Zrotation
								JOINT right_lowarm_twist
								{
									OFFSET	110.7	-3.89999	13.6
									CHANNELS 3  Xrotation Yrotation Zrotation
									JOINT right_hand
									{
										OFFSET	110.7	-3.89999	13.6
										CHANNELS 3  Xrotation Yrotation Zrotation
										JOINT right_ee
										{
											OFFSET	80.8	-5.10001	12.1
											CHANNELS 3  Xrotation Yrotation Zrotation
											End Site
											{
												OFFSET	1	0	0
											}
										}
									}
								}
							}
						}
					}
				}
			}
		}
	}
	JOINT left_hip
	{
		OFFSET	-82.8	-127.5	0.300001
		CHANNELS 3  Xrotation Yrotation Zrotation
		JOINT left_knee
		{
			OFFSET	-28.2	-396.7	2.2
			CHANNELS 3  Xrotation Yrotation Zrotation
			JOINT left_ankle
			{
				OFFSET	-11.7	-411.3	35.4
				CHANNELS 3  Xrotation Yrotation Zrotation
				JOINT left_toes
				{
					OFFSET	0	-60	-88.6
					CHANNELS 3  Xrotation Yrotation Zrotation
					JOINT left_foot_ee
					{
						OFFSET	-22.5	-16.5	-42.2
						CHANNELS 3  Xrotation Yrotation Zrotation
						End Site
						{
							OFFSET	1	0	0
						}
					}
				}
			}
		}
	}
	JOINT right_hip
	{
		OFFSET	82.8	-127.5	0.300001
		CHANNELS 3  Xrotation Yrotation Zrotation
		JOINT right_knee
		{
			OFFSET	28.2	-396.7	2.2
			CHANNELS 3  Xrotation Yrotation Zrotation
			JOINT right_ankle
			{
				OFFSET	11.7	-411.3	35.4
				CHANNELS 3  Xrotation Yrotation Zrotation
				JOINT right_toes
				{
					OFFSET	0	-60	-88.6
					CHANNELS 3  Xrotation Yrotation Zrotation
					JOINT right_foot_ee
					{
						OFFSET	22.5	-16.5	-42.2
						CHANNELS 3  Xrotation Yrotation Zrotation
						End Site
						{
							OFFSET	1	0	0
						}
					}
				}
			}
		}
	}
}
MOTION
Frames: 10
Frame Time: 0.02
2678.76282236 726.171 -1536.30715747 1.0376105348 56.0174695958 -2.26577513647 0.846099 0.152983 1.03304 0.846689 0.0869414 1.04069 0.848443 -0.118385 1.03758 0.846943 0.0469578 1.04325 -28.4391 17.9748 5.78265 -31.2587 32.2982 16.6014 -0.0 0.0 -0.0 3.51209 20.3729 7.50951 -29.1669 -6.32647 64.6543 0.926233 -24.6467 0.202351 -55.9054 -4.77838 4.95557 0.509819 16.2758 9.80458 -0.0 0.0 -0.0 12.6388 18.3786 -25.512 -10.7659 18.6867 -60.4797 1.46961 36.0524 -0.47827 85.2237 4.45333 8.8764 -4.65779 -28.4878 14.222 0.0 0.0 0.0 18.545 35.0402 -22.2174 -45.3609 -0.842554 6.73185 31.2128 -5.71112 -4.10123 -12.6849 0.0 0.0 -0.0 0.0 -0.0 10.4801 15.6147 -3.74458 -11.7227 -0.302437 -1.77048 28.4981 28.8767 4.55145 -16.844 0.0 0.0 0.0 0.0 0.0 
2669.87738228 728.749 -1533.52314165 1.31206441368 58.8498951843 -2.4598565157 0.762254 0.134179 0.886798 0.762688 0.0774804 0.893538 0.764036 -0.10018 0.891279 0.76293 0.0418325 0.895915 -27.575 17.8973 5.47931 -30.2634 32.2422 15.947 -0.0 0.0 -0.0 3.5495 20.7591 7.56929 -29.0054 -5.9807 65.8282 0.891582 -23.829 0.188125 -55.9655 -4.7857 4.95797 0.521492 17.399 10.2882 -0.0 0.0 -0.0 12.5366 16.6402 -25.3657 -10.0533 16.6676 -59.9822 1.55453 37.596 -0.529172 85.3863 4.47284 8.88379 -4.12603 -28.7765 11.0701 0.0 0.0 0.0 20.6288 35.3077 -23.0818 -41.1442 -0.541163 6.15771 29.7642 -6.77388 -3.96279 -13.1413 0.0 0.0 -0.0 0.0 -0.0 10.4874 15.8859 -3.99535 -12.0589 -0.305734 -1.82197 28.7675 29.0826 4.59736 -17.8902 0.0 0.0 0.0 0.0 0.0 
2663.07549325 729.603 -1530.54168202 0.673651496939 59.8443126385 -1.95439486753 0.783815 0.123316 1.06094 0.784439 0.0555596 1.06663 0.785653 -0.155402 1.05671 0.784095 0.0134269 1.06799 -28.4163 17.5916 6.02033 -31.0562 31.4899 16.5071 -0.0 0.0 -0.0 3.19006 21.2125 7.05364 -29.0198 -6.37908 66.4521 0.838673 -22.5605 0.167285 -55.877 -4.77491 4.95444 0.679314 17.4369 11.2809 -0.0 0.0 -0.0 12.4902 17.1064 -25.2366 -9.96914 17.188 -59.6212 1.64333 39.1444 -0.584299 85.4639 4.48215 8.8873 -3.15574 -28.0503 6.1933 0.0 0.0 0.0 19.9157 36.9705 -21.1982 -27.5364 0.130516 4.18326 25.2359 -11.3457 -3.52949 -14.1894 0.0 0.0 -0.0 0.0 -0.0 13.5862 14.5468 -5.58738 -12.0624 -0.305766 -1.8225 27.9903 23.3701 4.22163 -18.9889 0.0 0.0 0.0 0.0 0.0 
2661.11267781 729.603 -1525.51906829 0.718865172524 61.9165520471 -2.00614162533 0.783815 0.123316 1.06094 0.784439 0.0555596 1.06663 0.785653 -0.155402 1.05671 0.784095 0.0134269 1.06799 -28.4163 17.5916 6.02033 -31.0562 31.4899 16.5071 -0.0 0.0 -0.0 3.19006 21.2125 7.05364 -29.0198 -6.37908 66.4521 0.838673 -22.5605 0.167285 -55.877 -4.77491 4.95444 0.679314 17.4369 11.2809 -0.0 0.0 -0.0 12.4902 17.1064 -25.2366 -9.96914 17.188 -59.6212 1.64333 39.1444 -0.584299 85.4639 4.48215 8.8873 -3.15574 -28.0503 6.1933 0.0 0.0 0.0 19.9157 36.9705 -21.1982 -27.5364 0.130516 4.18326 25.2359 -11.3457 -3.52949 -14.1894 0.0 0.0 -0.0 0.0 -0.0 13.5862 14.5468 -5.58738 -12.0624 -0.305766 -1.8225 27.9903 23.3701 4.22163 -18.9889 0.0 0.0 0.0 0.0 0.0 
2660.0024601 729.603 -1522.41417691 0.750137871125 63.1836287741 -2.04137972219 0.783815 0.123316 1.06094 0.784439 0.0555596 1.06663 0.785653 -0.155402 1.05671 0.784095 0.0134269 1.06799 -28.4163 17.5916 6.02033 -31.0562 31.4899 16.5071 -0.0 0.0 -0.0 3.19006 21.2125 7.05364 -29.0198 -6.37908 66.4521 0.838673 -22.5605 0.167285 -55.877 -4.77491 4.95444 0.679314 17.4369 11.2809 -0.0 0.0 -0.0 12.4902 17.1064 -25.2366 -9.96914 17.188 -59.6212 1.64333 39.1444 -0.584299 85.4639 4.48215 8.8873 -3.15574 -28.0503 6.1933 0.0 0.0 0.0 19.9157 36.9705 -21.1982 -27.5364 0.130516 4.18326 25.2359 -11.3457 -3.52949 -14.1894 0.0 0.0 -0.0 0.0 -0.0 13.5862 14.5468 -5.58738 -12.0624 -0.305766 -1.8225 27.9903 23.3701 4.22163 -18.9889 0.0 0.0 0.0 0.0 0.0 
2659.85924024 729.603 -1521.99722597 0.754554821067 63.3530323343 -2.04632522872 0.783815 0.123316 1.06094 0.784439 0.0555596 1.06663 0.785653 -0.155402 1.05671 0.784095 0.0134269 1.06799 -28.4163 17.5916 6.02033 -31.0562 31.4899 16.5071 -0.0 0.0 -0.0 3.19006 21.2125 7.05364 -29.0198 -6.37908 66.4521 0.838673 -22.5605 0.167285 -55.877 -4.77491 4.95444 0.679314 17.4369 11.2809 -0.0 0.0 -0.0 12.4902 17.1064 -25.2366 -9.96914 17.188 -59.6212 1.64333 39.1444 -0.584299 85.4639 4.48215 8.8873 -3.15574 -28.0503 6.1933 0.0 0.0 0.0 19.9157 36.9705 -21.1982 -27.5364 0.130516 4.18326 25.2359 -11.3457 -3.52949 -14.1894 0.0 0.0 -0.0 0.0 -0.0 13.5862 14.5468 -5.58738 -12.0624 -0.305766 -1.8225 27.9903 23.3701 4.22163 -18.9889 0.0 0.0 0.0 0.0 0.0 
2659.68921438 729.603 -1521.49694902 0.759926423281 63.5560647269 -2.05232982647 0.783815 0.123316 1.06094 0.784439 0.0555596 1.06663 0.785653 -0.155402 1.05671 0.784095 0.0134269 1.06799 -28.4163 17.5916 6.02033 -31.0562 31.4899 16.5071 -0.0 0.0 -0.0 3.19006 21.2125 7.05364 -29.0198 -6.37908 66.4521 0.838673 -22.5605 0.167285 -55.877 -4.77491 4.95444 0.679314 17.4369 11.2809 -0.0 0.0 -0.0 12.4902 17.1064 -25.2366 -9.96914 17.188 -59.6212 1.64333 39.1444 -0.584299 85.4639 4.48215 8.8873 -3.15574 -28.0503 6.1933 0.0 0.0 0.0 19.9157 36.9705 -21.1982 -27.5364 0.130516 4.18326 25.2359 -11.3457 -3.52949 -14.1894 0.0 0.0 -0.0 0.0 -0.0 13.5862 14.5468 -5.58738 -12.0624 -0.305766 -1.8225 27.9903 23.3701 4.22163 -18.9889 0.0 0.0 0.0 0.0 0.0 
2659.08548774 729.603 -1519.67145371 0.780220428709 64.2948872317 -2.0749228588 0.783815 0.123316 1.06094 0.784439 0.0555596 1.06663 0.785653 -0.155402 1.05671 0.784095 0.0134269 1.06799 -28.4163 17.5916 6.02033 -31.0562 31.4899 16.5071 -0.0 0.0 -0.0 3.19006 21.2125 7.05364 -29.0198 -6.37908 66.4521 0.838673 -22.5605 0.167285 -55.877 -4.77491 4.95444 0.679314 17.4369 11.2809 -0.0 0.0 -0.0 12.4902 17.1064 -25.2366 -9.96914 17.188 -59.6212 1.64333 39.1444 -0.584299 85.4639 4.48215 8.8873 -3.15574 -28.0503 6.1933 0.0 0.0 0.0 19.9157 36.9705 -21.1982 -27.5364 0.130516 4.18326 25.2359 -11.3457 -3.52949 -14.1894 0.0 0.0 -0.0 0.0 -0.0 13.5862 14.5468 -5.58738 -12.0624 -0.305766 -1.8225 27.9903 23.3701 4.22163 -18.9889 0.0 0.0 0.0 0.0 0.0 
2658.64626304 729.603 -1518.29121431 0.796328213883 64.8514543581 -2.0927580738 0.783815 0.123316 1.06094 0.784439 0.0555596 1.06663 0.785653 -0.155402 1.05671 0.784095 0.0134269 1.06799 -28.4163 17.5916 6.02033 -31.0562 31.4899 16.5071 -0.0 0.0 -0.0 3.19006 21.2125 7.05364 -29.0198 -6.37908 66.4521 0.838673 -22.5605 0.167285 -55.877 -4.77491 4.95444 0.679314 17.4369 11.2809 -0.0 0.0 -0.0 12.4902 17.1064 -25.2366 -9.96914 17.188 -59.6212 1.64333 39.1444 -0.584299 85.4639 4.48215 8.8873 -3.15574 -28.0503 6.1933 0.0 0.0 0.0 19.9157 36.9705 -21.1982 -27.5364 0.130516 4.18326 25.2359 -11.3457 -3.52949 -14.1894 0.0 0.0 -0.0 0.0 -0.0 13.5862 14.5468 -5.58738 -12.0624 -0.305766 -1.8225 27.9903 23.3701 4.22163 -18.9889 0.0 0.0 0.0 0.0 0.0 
2658.76323097 729.603 -1518.66334526 0.79191777861 64.7015655454 -2.08788279638 0.783815 0.123316 1.06094 0.784439 0.0555596 1.06663 0.785653 -0.155402 1.05671 0.784095 0.0134269 1.06799 -28.4163 17.5916 6.02033 -31.0562 31.4899 16.5071 -0.0 0.0 -0.0 3.19006 21.2125 7.05364 -29.0198 -6.37908 66.4521 0.838673 -22.5605 0.167285 -55.877 -4.77491 4.95444 0.679314 17.4369 11.2809 -0.0 0.0 -0.0 12.4902 17.1064 -25.2366 -9.96914 17.188 -59.6212 1.64333 39.1444 -0.584299 85.4639 4.48215 8.8873 -3.15574 -28.0503 6.1933 0.0 0.0 0.0 19.9157 36.9705 -21.1982 -27.5364 0.130516 4.18326 25.2359 -11.3457 -3.52949 -14.1894 0.0 0.0 -0.0 0.0 -0.0 13.5862 14.5468 -5.58738 -12.0624 -0.305766 -1.8225 27.9903 23.3701 4.22163 -18.9889 0.0 0.0 0.0 0.0 0.0 
